<mxfile host="65bd71144e">
    <diagram id="RmTXMflnBBCHSnIX3L-M" name="Page-1">
        <mxGraphModel dx="1699" dy="755" grid="1" gridSize="10" guides="1" tooltips="1" connect="1" arrows="1" fold="1" page="1" pageScale="1" pageWidth="850" pageHeight="1100" background="#ffffff" math="0" shadow="0">
            <root>
                <mxCell id="0"/>
                <mxCell id="1" parent="0"/>
                <mxCell id="2" value="" style="endArrow=classic;html=1;strokeColor=#000000;fontColor=#000000;strokeWidth=2;" parent="1" edge="1">
                    <mxGeometry width="50" height="50" relative="1" as="geometry">
                        <mxPoint x="213.33999999999997" y="200" as="sourcePoint"/>
                        <mxPoint x="293.34" y="200" as="targetPoint"/>
                    </mxGeometry>
                </mxCell>
                <mxCell id="3" value="pq.push(1)" style="text;html=1;strokeColor=none;fillColor=none;align=center;verticalAlign=middle;whiteSpace=wrap;rounded=0;fontColor=#000000;fontStyle=0" parent="1" vertex="1">
                    <mxGeometry x="219.33999999999997" y="180" width="60" height="20" as="geometry"/>
                </mxCell>
                <mxCell id="4" value="" style="endArrow=none;html=1;strokeColor=#000000;fontColor=#000000;strokeWidth=2;" parent="1" edge="1">
                    <mxGeometry width="50" height="50" relative="1" as="geometry">
                        <mxPoint x="547.6599999999999" y="512.27" as="sourcePoint"/>
                        <mxPoint x="547.6599999999999" y="482.27" as="targetPoint"/>
                    </mxGeometry>
                </mxCell>
                <mxCell id="5" value="" style="endArrow=none;html=1;strokeColor=#000000;fontColor=#000000;strokeWidth=2;" parent="1" edge="1">
                    <mxGeometry width="50" height="50" relative="1" as="geometry">
                        <mxPoint x="587.6599999999999" y="512.27" as="sourcePoint"/>
                        <mxPoint x="587.6599999999999" y="482.27" as="targetPoint"/>
                    </mxGeometry>
                </mxCell>
                <mxCell id="6" value="" style="endArrow=none;html=1;strokeColor=#000000;fontColor=#000000;strokeWidth=2;" parent="1" edge="1">
                    <mxGeometry width="50" height="50" relative="1" as="geometry">
                        <mxPoint x="547.6599999999999" y="512.27" as="sourcePoint"/>
                        <mxPoint x="587.6599999999999" y="512.27" as="targetPoint"/>
                    </mxGeometry>
                </mxCell>
                <mxCell id="7" value="" style="endArrow=classic;html=1;strokeColor=#000000;fontColor=#000000;strokeWidth=2;" parent="1" edge="1">
                    <mxGeometry width="50" height="50" relative="1" as="geometry">
                        <mxPoint x="368.34" y="200" as="sourcePoint"/>
                        <mxPoint x="448.34" y="200" as="targetPoint"/>
                    </mxGeometry>
                </mxCell>
                <mxCell id="8" value="pq.push(7)" style="text;html=1;strokeColor=none;fillColor=none;align=center;verticalAlign=middle;whiteSpace=wrap;rounded=0;fontColor=#000000;" parent="1" vertex="1">
                    <mxGeometry x="374.34" y="180" width="60" height="20" as="geometry"/>
                </mxCell>
                <mxCell id="9" value="" style="endArrow=none;html=1;strokeColor=#000000;fontColor=#000000;strokeWidth=2;" parent="1" edge="1">
                    <mxGeometry width="50" height="50" relative="1" as="geometry">
                        <mxPoint x="463.34" y="219.73000000000002" as="sourcePoint"/>
                        <mxPoint x="463.34" y="159.73000000000002" as="targetPoint"/>
                    </mxGeometry>
                </mxCell>
                <mxCell id="10" value="" style="endArrow=none;html=1;strokeColor=#000000;fontColor=#000000;strokeWidth=2;" parent="1" edge="1">
                    <mxGeometry width="50" height="50" relative="1" as="geometry">
                        <mxPoint x="503.34" y="219.73000000000002" as="sourcePoint"/>
                        <mxPoint x="503.34" y="159.73000000000002" as="targetPoint"/>
                    </mxGeometry>
                </mxCell>
                <mxCell id="11" value="" style="endArrow=none;html=1;strokeColor=#000000;fontColor=#000000;strokeWidth=2;" parent="1" edge="1">
                    <mxGeometry width="50" height="50" relative="1" as="geometry">
                        <mxPoint x="463.34" y="219.73000000000002" as="sourcePoint"/>
                        <mxPoint x="503.34" y="219.73000000000002" as="targetPoint"/>
                    </mxGeometry>
                </mxCell>
                <mxCell id="12" value="" style="endArrow=classic;html=1;strokeColor=#000000;fontColor=#000000;strokeWidth=2;" parent="1" edge="1">
                    <mxGeometry width="50" height="50" relative="1" as="geometry">
                        <mxPoint x="523.34" y="200" as="sourcePoint"/>
                        <mxPoint x="603.34" y="200" as="targetPoint"/>
                    </mxGeometry>
                </mxCell>
                <mxCell id="13" value="pq.push(4)" style="text;html=1;strokeColor=none;fillColor=none;align=center;verticalAlign=middle;whiteSpace=wrap;rounded=0;fontColor=#000000;" parent="1" vertex="1">
                    <mxGeometry x="529.34" y="180" width="60" height="20" as="geometry"/>
                </mxCell>
                <mxCell id="14" value="" style="endArrow=none;html=1;strokeColor=#000000;fontColor=#000000;strokeWidth=2;" parent="1" edge="1">
                    <mxGeometry width="50" height="50" relative="1" as="geometry">
                        <mxPoint x="613.34" y="220" as="sourcePoint"/>
                        <mxPoint x="613.34" y="130" as="targetPoint"/>
                    </mxGeometry>
                </mxCell>
                <mxCell id="15" value="" style="endArrow=none;html=1;strokeColor=#000000;fontColor=#000000;strokeWidth=2;" parent="1" edge="1">
                    <mxGeometry width="50" height="50" relative="1" as="geometry">
                        <mxPoint x="653.34" y="220" as="sourcePoint"/>
                        <mxPoint x="653.34" y="130" as="targetPoint"/>
                    </mxGeometry>
                </mxCell>
                <mxCell id="16" value="" style="endArrow=none;html=1;strokeColor=#000000;fontColor=#000000;strokeWidth=2;" parent="1" edge="1">
                    <mxGeometry width="50" height="50" relative="1" as="geometry">
                        <mxPoint x="613.34" y="220" as="sourcePoint"/>
                        <mxPoint x="653.34" y="220" as="targetPoint"/>
                    </mxGeometry>
                </mxCell>
                <mxCell id="17" value="" style="endArrow=classic;html=1;strokeColor=#000000;fontColor=#000000;strokeWidth=2;" parent="1" edge="1">
                    <mxGeometry width="50" height="50" relative="1" as="geometry">
                        <mxPoint x="673.34" y="200" as="sourcePoint"/>
                        <mxPoint x="753.34" y="200" as="targetPoint"/>
                    </mxGeometry>
                </mxCell>
                <mxCell id="18" value="pq.top()" style="text;html=1;strokeColor=none;fillColor=none;align=center;verticalAlign=middle;whiteSpace=wrap;rounded=0;fontColor=#000000;" parent="1" vertex="1">
                    <mxGeometry x="679.34" y="180" width="60" height="20" as="geometry"/>
                </mxCell>
                <mxCell id="19" value="1" style="text;html=1;strokeColor=none;fillColor=#E6E6E6;align=center;verticalAlign=middle;whiteSpace=wrap;rounded=0;fontColor=#000000;fontStyle=1" parent="1" vertex="1">
                    <mxGeometry x="464.34" y="189" width="38" height="30" as="geometry"/>
                </mxCell>
                <mxCell id="20" value="7" style="text;html=1;strokeColor=none;fillColor=#FF66FF;align=center;verticalAlign=middle;whiteSpace=wrap;rounded=0;fontColor=#000000;fontStyle=1" parent="1" vertex="1">
                    <mxGeometry x="464.34" y="160" width="38" height="30" as="geometry"/>
                </mxCell>
                <mxCell id="21" value="" style="endArrow=none;html=1;strokeColor=#000000;fontColor=#000000;strokeWidth=2;dashed=1;" parent="1" edge="1">
                    <mxGeometry width="50" height="50" relative="1" as="geometry">
                        <mxPoint x="463.34" y="189.92000000000007" as="sourcePoint"/>
                        <mxPoint x="503.34" y="189.92000000000007" as="targetPoint"/>
                    </mxGeometry>
                </mxCell>
                <mxCell id="22" value="1" style="text;html=1;strokeColor=none;fillColor=#E6E6E6;align=center;verticalAlign=middle;whiteSpace=wrap;rounded=0;fontColor=#000000;fontStyle=1" parent="1" vertex="1">
                    <mxGeometry x="614.34" y="189" width="38" height="30" as="geometry"/>
                </mxCell>
                <mxCell id="23" value="4" style="text;html=1;strokeColor=none;fillColor=#E6E6E6;align=center;verticalAlign=middle;whiteSpace=wrap;rounded=0;fontColor=#000000;fontStyle=1" parent="1" vertex="1">
                    <mxGeometry x="614.34" y="160" width="38" height="30" as="geometry"/>
                </mxCell>
                <mxCell id="24" value="7" style="text;html=1;strokeColor=none;fillColor=#FF66FF;align=center;verticalAlign=middle;whiteSpace=wrap;rounded=0;fontColor=#000000;fontStyle=1" parent="1" vertex="1">
                    <mxGeometry x="614.34" y="130" width="38" height="30" as="geometry"/>
                </mxCell>
                <mxCell id="25" value="" style="endArrow=none;html=1;strokeColor=#000000;fontColor=#000000;strokeWidth=2;dashed=1;" parent="1" edge="1">
                    <mxGeometry width="50" height="50" relative="1" as="geometry">
                        <mxPoint x="613.34" y="190" as="sourcePoint"/>
                        <mxPoint x="653.34" y="190" as="targetPoint"/>
                    </mxGeometry>
                </mxCell>
                <mxCell id="26" value="" style="endArrow=none;html=1;strokeColor=#000000;fontColor=#000000;strokeWidth=2;dashed=1;" parent="1" edge="1">
                    <mxGeometry width="50" height="50" relative="1" as="geometry">
                        <mxPoint x="613.34" y="160" as="sourcePoint"/>
                        <mxPoint x="653.34" y="160" as="targetPoint"/>
                    </mxGeometry>
                </mxCell>
                <mxCell id="27" value="7" style="text;html=1;strokeColor=#FF66FF;fillColor=none;align=center;verticalAlign=middle;whiteSpace=wrap;rounded=0;fontColor=#000000;fontStyle=1;fontSize=14;labelBorderColor=none;strokeWidth=3;" parent="1" vertex="1">
                    <mxGeometry x="759.34" y="184" width="30" height="30" as="geometry"/>
                </mxCell>
                <mxCell id="28" value="" style="endArrow=classic;html=1;strokeColor=#000000;fontColor=#000000;strokeWidth=2;" parent="1" edge="1">
                    <mxGeometry width="50" height="50" relative="1" as="geometry">
                        <mxPoint x="165" y="357.06999999999994" as="sourcePoint"/>
                        <mxPoint x="245" y="357.06999999999994" as="targetPoint"/>
                    </mxGeometry>
                </mxCell>
                <mxCell id="29" value="pq.pop()" style="text;html=1;strokeColor=none;fillColor=none;align=center;verticalAlign=middle;whiteSpace=wrap;rounded=0;fontColor=#000000;" parent="1" vertex="1">
                    <mxGeometry x="171" y="337.07" width="60" height="20" as="geometry"/>
                </mxCell>
                <mxCell id="30" value="" style="endArrow=none;html=1;strokeColor=#000000;fontColor=#000000;strokeWidth=2;" parent="1" edge="1">
                    <mxGeometry width="50" height="50" relative="1" as="geometry">
                        <mxPoint x="259.78" y="377.06999999999994" as="sourcePoint"/>
                        <mxPoint x="259.78" y="317.06999999999994" as="targetPoint"/>
                    </mxGeometry>
                </mxCell>
                <mxCell id="31" value="" style="endArrow=none;html=1;strokeColor=#000000;fontColor=#000000;strokeWidth=2;" parent="1" edge="1">
                    <mxGeometry width="50" height="50" relative="1" as="geometry">
                        <mxPoint x="299.78" y="377.06999999999994" as="sourcePoint"/>
                        <mxPoint x="299.78" y="317.06999999999994" as="targetPoint"/>
                    </mxGeometry>
                </mxCell>
                <mxCell id="32" value="" style="endArrow=none;html=1;strokeColor=#000000;fontColor=#000000;strokeWidth=2;" parent="1" edge="1">
                    <mxGeometry width="50" height="50" relative="1" as="geometry">
                        <mxPoint x="259.78" y="377.06999999999994" as="sourcePoint"/>
                        <mxPoint x="299.78" y="377.06999999999994" as="targetPoint"/>
                    </mxGeometry>
                </mxCell>
                <mxCell id="33" value="1" style="text;html=1;strokeColor=none;fillColor=#E6E6E6;align=center;verticalAlign=middle;whiteSpace=wrap;rounded=0;fontColor=#000000;fontStyle=1" parent="1" vertex="1">
                    <mxGeometry x="261" y="346.07" width="38" height="30" as="geometry"/>
                </mxCell>
                <mxCell id="34" value="4" style="text;html=1;strokeColor=none;fillColor=#FF66FF;align=center;verticalAlign=middle;whiteSpace=wrap;rounded=0;fontColor=#000000;fontStyle=1" parent="1" vertex="1">
                    <mxGeometry x="261" y="317.34" width="38" height="30" as="geometry"/>
                </mxCell>
                <mxCell id="35" value="" style="endArrow=none;html=1;strokeColor=#000000;fontColor=#000000;strokeWidth=2;dashed=1;" parent="1" edge="1">
                    <mxGeometry width="50" height="50" relative="1" as="geometry">
                        <mxPoint x="259.78" y="347.26" as="sourcePoint"/>
                        <mxPoint x="299.78" y="347.26" as="targetPoint"/>
                    </mxGeometry>
                </mxCell>
                <mxCell id="36" value="" style="endArrow=classic;html=1;strokeColor=#000000;fontColor=#000000;strokeWidth=2;" parent="1" edge="1">
                    <mxGeometry width="50" height="50" relative="1" as="geometry">
                        <mxPoint x="316" y="356.51" as="sourcePoint"/>
                        <mxPoint x="396" y="356.51" as="targetPoint"/>
                    </mxGeometry>
                </mxCell>
                <mxCell id="37" value="pq.pop()" style="text;html=1;strokeColor=none;fillColor=none;align=center;verticalAlign=middle;whiteSpace=wrap;rounded=0;fontColor=#000000;" parent="1" vertex="1">
                    <mxGeometry x="322" y="336.51" width="60" height="20" as="geometry"/>
                </mxCell>
                <mxCell id="38" value="" style="endArrow=classic;html=1;strokeColor=#000000;fontColor=#000000;strokeWidth=2;" parent="1" edge="1">
                    <mxGeometry width="50" height="50" relative="1" as="geometry">
                        <mxPoint x="625" y="357.3399999999999" as="sourcePoint"/>
                        <mxPoint x="705" y="357.3399999999999" as="targetPoint"/>
                    </mxGeometry>
                </mxCell>
                <mxCell id="39" value="pq.top()" style="text;html=1;strokeColor=none;fillColor=none;align=center;verticalAlign=middle;whiteSpace=wrap;rounded=0;fontColor=#000000;" parent="1" vertex="1">
                    <mxGeometry x="631" y="337.34" width="60" height="20" as="geometry"/>
                </mxCell>
                <mxCell id="40" value="" style="endArrow=classic;html=1;strokeColor=#000000;fontColor=#000000;strokeWidth=2;" parent="1" edge="1">
                    <mxGeometry width="50" height="50" relative="1" as="geometry">
                        <mxPoint x="471" y="357.3399999999999" as="sourcePoint"/>
                        <mxPoint x="551" y="357.3399999999999" as="targetPoint"/>
                    </mxGeometry>
                </mxCell>
                <mxCell id="41" value="pq.push(0)" style="text;html=1;strokeColor=none;fillColor=none;align=center;verticalAlign=middle;whiteSpace=wrap;rounded=0;fontColor=#000000;" parent="1" vertex="1">
                    <mxGeometry x="476.99999999999994" y="337.34" width="60" height="20" as="geometry"/>
                </mxCell>
                <mxCell id="42" value="" style="endArrow=none;html=1;strokeColor=#000000;fontColor=#000000;strokeWidth=2;" parent="1" edge="1">
                    <mxGeometry width="50" height="50" relative="1" as="geometry">
                        <mxPoint x="566" y="377.3399999999999" as="sourcePoint"/>
                        <mxPoint x="566" y="317.3399999999999" as="targetPoint"/>
                    </mxGeometry>
                </mxCell>
                <mxCell id="43" value="" style="endArrow=none;html=1;strokeColor=#000000;fontColor=#000000;strokeWidth=2;" parent="1" edge="1">
                    <mxGeometry width="50" height="50" relative="1" as="geometry">
                        <mxPoint x="606" y="377.3399999999999" as="sourcePoint"/>
                        <mxPoint x="606" y="317.3399999999999" as="targetPoint"/>
                    </mxGeometry>
                </mxCell>
                <mxCell id="44" value="" style="endArrow=none;html=1;strokeColor=#000000;fontColor=#000000;strokeWidth=2;" parent="1" edge="1">
                    <mxGeometry width="50" height="50" relative="1" as="geometry">
                        <mxPoint x="566" y="377.3399999999999" as="sourcePoint"/>
                        <mxPoint x="606" y="377.3399999999999" as="targetPoint"/>
                    </mxGeometry>
                </mxCell>
                <mxCell id="45" value="0" style="text;html=1;strokeColor=none;fillColor=#E6E6E6;align=center;verticalAlign=middle;whiteSpace=wrap;rounded=0;fontColor=#000000;fontStyle=1" parent="1" vertex="1">
                    <mxGeometry x="567" y="346.07" width="38" height="30" as="geometry"/>
                </mxCell>
                <mxCell id="46" value="1" style="text;html=1;strokeColor=none;fillColor=#FF66FF;align=center;verticalAlign=middle;whiteSpace=wrap;rounded=0;fontColor=#000000;fontStyle=1" parent="1" vertex="1">
                    <mxGeometry x="567" y="317.60999999999996" width="38" height="30" as="geometry"/>
                </mxCell>
                <mxCell id="47" value="" style="endArrow=none;html=1;strokeColor=#000000;fontColor=#000000;strokeWidth=2;dashed=1;" parent="1" edge="1">
                    <mxGeometry width="50" height="50" relative="1" as="geometry">
                        <mxPoint x="566" y="347.53" as="sourcePoint"/>
                        <mxPoint x="606" y="347.53" as="targetPoint"/>
                    </mxGeometry>
                </mxCell>
                <mxCell id="48" value="priority_queue&amp;lt;int&amp;gt; pq" style="text;html=1;strokeColor=none;fillColor=none;align=center;verticalAlign=middle;whiteSpace=wrap;rounded=0;fontColor=#000000;fontStyle=1;fontSize=13;" parent="1" vertex="1">
                    <mxGeometry x="60" y="189" width="150" height="20" as="geometry"/>
                </mxCell>
                <mxCell id="49" value="0" style="text;html=1;strokeColor=none;fillColor=#FF66FF;align=center;verticalAlign=middle;whiteSpace=wrap;rounded=0;fontColor=#000000;fontStyle=1;labelBackgroundColor=none;" parent="1" vertex="1">
                    <mxGeometry x="548.66" y="482.5" width="38" height="29" as="geometry"/>
                </mxCell>
                <mxCell id="50" value="1" style="text;html=1;strokeColor=#FF66FF;fillColor=none;align=center;verticalAlign=middle;whiteSpace=wrap;rounded=0;fontColor=#000000;fontStyle=1;fontSize=14;labelBorderColor=none;strokeWidth=3;" parent="1" vertex="1">
                    <mxGeometry x="711" y="342.07" width="30" height="30" as="geometry"/>
                </mxCell>
                <mxCell id="51" value="" style="endArrow=none;html=1;strokeColor=#000000;fontColor=#000000;strokeWidth=2;" parent="1" edge="1">
                    <mxGeometry width="50" height="50" relative="1" as="geometry">
                        <mxPoint x="306.33999999999975" y="220" as="sourcePoint"/>
                        <mxPoint x="306.33999999999975" y="190" as="targetPoint"/>
                    </mxGeometry>
                </mxCell>
                <mxCell id="52" value="" style="endArrow=none;html=1;strokeColor=#000000;fontColor=#000000;strokeWidth=2;" parent="1" edge="1">
                    <mxGeometry width="50" height="50" relative="1" as="geometry">
                        <mxPoint x="346.34" y="220" as="sourcePoint"/>
                        <mxPoint x="346.34" y="190" as="targetPoint"/>
                    </mxGeometry>
                </mxCell>
                <mxCell id="53" value="" style="endArrow=none;html=1;strokeColor=#000000;fontColor=#000000;strokeWidth=2;" parent="1" edge="1">
                    <mxGeometry width="50" height="50" relative="1" as="geometry">
                        <mxPoint x="306.33999999999975" y="220" as="sourcePoint"/>
                        <mxPoint x="346.34" y="220" as="targetPoint"/>
                    </mxGeometry>
                </mxCell>
                <mxCell id="54" value="1" style="text;html=1;strokeColor=none;fillColor=#FF66FF;align=center;verticalAlign=middle;whiteSpace=wrap;rounded=0;fontColor=#000000;fontStyle=1;labelBackgroundColor=none;" parent="1" vertex="1">
                    <mxGeometry x="307.3399999999999" y="190.00000000000003" width="38" height="29" as="geometry"/>
                </mxCell>
                <mxCell id="55" value="" style="endArrow=none;html=1;strokeColor=#000000;fontColor=#000000;strokeWidth=2;" parent="1" edge="1">
                    <mxGeometry width="50" height="50" relative="1" as="geometry">
                        <mxPoint x="110.66000000000008" y="377" as="sourcePoint"/>
                        <mxPoint x="110.66000000000008" y="287" as="targetPoint"/>
                    </mxGeometry>
                </mxCell>
                <mxCell id="56" value="" style="endArrow=none;html=1;strokeColor=#000000;fontColor=#000000;strokeWidth=2;" parent="1" edge="1">
                    <mxGeometry width="50" height="50" relative="1" as="geometry">
                        <mxPoint x="150.66000000000008" y="377" as="sourcePoint"/>
                        <mxPoint x="150.66000000000008" y="287" as="targetPoint"/>
                    </mxGeometry>
                </mxCell>
                <mxCell id="57" value="" style="endArrow=none;html=1;strokeColor=#000000;fontColor=#000000;strokeWidth=2;" parent="1" edge="1">
                    <mxGeometry width="50" height="50" relative="1" as="geometry">
                        <mxPoint x="110.66000000000008" y="377" as="sourcePoint"/>
                        <mxPoint x="150.66000000000008" y="377" as="targetPoint"/>
                    </mxGeometry>
                </mxCell>
                <mxCell id="58" value="1" style="text;html=1;strokeColor=none;fillColor=#E6E6E6;align=center;verticalAlign=middle;whiteSpace=wrap;rounded=0;fontColor=#000000;fontStyle=1" parent="1" vertex="1">
                    <mxGeometry x="111.66" y="346" width="38" height="30" as="geometry"/>
                </mxCell>
                <mxCell id="59" value="4" style="text;html=1;strokeColor=none;fillColor=#E6E6E6;align=center;verticalAlign=middle;whiteSpace=wrap;rounded=0;fontColor=#000000;fontStyle=1" parent="1" vertex="1">
                    <mxGeometry x="111.66" y="317" width="38" height="30" as="geometry"/>
                </mxCell>
                <mxCell id="60" value="7" style="text;html=1;strokeColor=none;fillColor=#FF66FF;align=center;verticalAlign=middle;whiteSpace=wrap;rounded=0;fontColor=#000000;fontStyle=1" parent="1" vertex="1">
                    <mxGeometry x="111.66" y="287" width="38" height="30" as="geometry"/>
                </mxCell>
                <mxCell id="61" value="" style="endArrow=none;html=1;strokeColor=#000000;fontColor=#000000;strokeWidth=2;dashed=1;" parent="1" edge="1">
                    <mxGeometry width="50" height="50" relative="1" as="geometry">
                        <mxPoint x="110.66000000000008" y="347" as="sourcePoint"/>
                        <mxPoint x="150.66000000000008" y="347" as="targetPoint"/>
                    </mxGeometry>
                </mxCell>
                <mxCell id="62" value="" style="endArrow=none;html=1;strokeColor=#000000;fontColor=#000000;strokeWidth=2;dashed=1;" parent="1" edge="1">
                    <mxGeometry width="50" height="50" relative="1" as="geometry">
                        <mxPoint x="110.66000000000008" y="317" as="sourcePoint"/>
                        <mxPoint x="150.66000000000008" y="317" as="targetPoint"/>
                    </mxGeometry>
                </mxCell>
                <mxCell id="63" value="" style="endArrow=none;html=1;strokeColor=#000000;fontColor=#000000;strokeWidth=2;" parent="1" edge="1">
                    <mxGeometry width="50" height="50" relative="1" as="geometry">
                        <mxPoint x="111.66000000000008" y="514.27" as="sourcePoint"/>
                        <mxPoint x="111.66000000000008" y="454.27" as="targetPoint"/>
                    </mxGeometry>
                </mxCell>
                <mxCell id="64" value="" style="endArrow=none;html=1;strokeColor=#000000;fontColor=#000000;strokeWidth=2;" parent="1" edge="1">
                    <mxGeometry width="50" height="50" relative="1" as="geometry">
                        <mxPoint x="151.66000000000008" y="514.27" as="sourcePoint"/>
                        <mxPoint x="151.66000000000008" y="454.27" as="targetPoint"/>
                    </mxGeometry>
                </mxCell>
                <mxCell id="65" value="" style="endArrow=none;html=1;strokeColor=#000000;fontColor=#000000;strokeWidth=2;" parent="1" edge="1">
                    <mxGeometry width="50" height="50" relative="1" as="geometry">
                        <mxPoint x="111.66000000000008" y="514.27" as="sourcePoint"/>
                        <mxPoint x="151.66000000000008" y="514.27" as="targetPoint"/>
                    </mxGeometry>
                </mxCell>
                <mxCell id="66" value="0" style="text;html=1;strokeColor=none;fillColor=#E6E6E6;align=center;verticalAlign=middle;whiteSpace=wrap;rounded=0;fontColor=#000000;fontStyle=1" parent="1" vertex="1">
                    <mxGeometry x="112.66" y="483" width="38" height="30" as="geometry"/>
                </mxCell>
                <mxCell id="67" value="1" style="text;html=1;strokeColor=none;fillColor=#FF66FF;align=center;verticalAlign=middle;whiteSpace=wrap;rounded=0;fontColor=#000000;fontStyle=1" parent="1" vertex="1">
                    <mxGeometry x="112.66" y="454.53999999999996" width="38" height="30" as="geometry"/>
                </mxCell>
                <mxCell id="68" value="" style="endArrow=none;html=1;strokeColor=#000000;fontColor=#000000;strokeWidth=2;dashed=1;" parent="1" edge="1">
                    <mxGeometry width="50" height="50" relative="1" as="geometry">
                        <mxPoint x="111.66000000000008" y="484.46000000000004" as="sourcePoint"/>
                        <mxPoint x="151.66000000000008" y="484.46000000000004" as="targetPoint"/>
                    </mxGeometry>
                </mxCell>
                <mxCell id="69" value="" style="endArrow=classic;html=1;strokeColor=#000000;fontColor=#000000;strokeWidth=2;" parent="1" edge="1">
                    <mxGeometry width="50" height="50" relative="1" as="geometry">
                        <mxPoint x="165.66000000000008" y="493.73" as="sourcePoint"/>
                        <mxPoint x="245.66000000000008" y="493.73" as="targetPoint"/>
                    </mxGeometry>
                </mxCell>
                <mxCell id="70" value="pq.size()" style="text;html=1;strokeColor=none;fillColor=none;align=center;verticalAlign=middle;whiteSpace=wrap;rounded=0;fontColor=#000000;" parent="1" vertex="1">
                    <mxGeometry x="171.66" y="473.72999999999996" width="60" height="20" as="geometry"/>
                </mxCell>
                <mxCell id="71" value="" style="endArrow=classic;html=1;strokeColor=#000000;fontColor=#000000;strokeWidth=2;" parent="1" edge="1">
                    <mxGeometry width="50" height="50" relative="1" as="geometry">
                        <mxPoint x="451.6600000000001" y="491.9999999999998" as="sourcePoint"/>
                        <mxPoint x="531.6599999999999" y="491.9999999999998" as="targetPoint"/>
                    </mxGeometry>
                </mxCell>
                <mxCell id="72" value="pq.pop()" style="text;html=1;strokeColor=none;fillColor=none;align=center;verticalAlign=middle;whiteSpace=wrap;rounded=0;fontColor=#000000;" parent="1" vertex="1">
                    <mxGeometry x="457.66" y="471.99999999999994" width="60" height="20" as="geometry"/>
                </mxCell>
                <mxCell id="73" value="" style="endArrow=none;html=1;strokeColor=#000000;fontColor=#000000;strokeWidth=2;" parent="1" edge="1">
                    <mxGeometry width="50" height="50" relative="1" as="geometry">
                        <mxPoint x="392.6600000000001" y="511.9999999999998" as="sourcePoint"/>
                        <mxPoint x="392.6600000000001" y="452" as="targetPoint"/>
                    </mxGeometry>
                </mxCell>
                <mxCell id="74" value="" style="endArrow=none;html=1;strokeColor=#000000;fontColor=#000000;strokeWidth=2;" parent="1" edge="1">
                    <mxGeometry width="50" height="50" relative="1" as="geometry">
                        <mxPoint x="432.6600000000001" y="511.9999999999998" as="sourcePoint"/>
                        <mxPoint x="432.6600000000001" y="452" as="targetPoint"/>
                    </mxGeometry>
                </mxCell>
                <mxCell id="75" value="" style="endArrow=none;html=1;strokeColor=#000000;fontColor=#000000;strokeWidth=2;" parent="1" edge="1">
                    <mxGeometry width="50" height="50" relative="1" as="geometry">
                        <mxPoint x="392.6600000000001" y="511.9999999999998" as="sourcePoint"/>
                        <mxPoint x="432.6600000000001" y="511.9999999999998" as="targetPoint"/>
                    </mxGeometry>
                </mxCell>
                <mxCell id="76" value="0" style="text;html=1;strokeColor=none;fillColor=#E6E6E6;align=center;verticalAlign=middle;whiteSpace=wrap;rounded=0;fontColor=#000000;fontStyle=1" parent="1" vertex="1">
                    <mxGeometry x="393.66" y="480.72999999999996" width="38" height="30" as="geometry"/>
                </mxCell>
                <mxCell id="77" value="1" style="text;html=1;strokeColor=none;fillColor=#FF66FF;align=center;verticalAlign=middle;whiteSpace=wrap;rounded=0;fontColor=#000000;fontStyle=1" parent="1" vertex="1">
                    <mxGeometry x="393.66" y="452.2699999999999" width="38" height="30" as="geometry"/>
                </mxCell>
                <mxCell id="78" value="" style="endArrow=none;html=1;strokeColor=#000000;fontColor=#000000;strokeWidth=2;dashed=1;" parent="1" edge="1">
                    <mxGeometry width="50" height="50" relative="1" as="geometry">
                        <mxPoint x="392.6600000000001" y="482.1899999999998" as="sourcePoint"/>
                        <mxPoint x="432.6600000000001" y="482.1899999999998" as="targetPoint"/>
                    </mxGeometry>
                </mxCell>
                <mxCell id="79" value="2" style="text;html=1;strokeColor=#FF66FF;fillColor=none;align=center;verticalAlign=middle;whiteSpace=wrap;rounded=0;fontColor=#000000;fontStyle=1;fontSize=14;labelBorderColor=none;strokeWidth=3;" parent="1" vertex="1">
                    <mxGeometry x="252.66" y="477.15999999999997" width="30" height="30" as="geometry"/>
                </mxCell>
                <mxCell id="80" value="" style="endArrow=none;html=1;strokeColor=#000000;fontColor=#000000;strokeWidth=2;" parent="1" edge="1">
                    <mxGeometry width="50" height="50" relative="1" as="geometry">
                        <mxPoint x="414.72" y="375.78999999999996" as="sourcePoint"/>
                        <mxPoint x="414.72" y="345.78999999999996" as="targetPoint"/>
                    </mxGeometry>
                </mxCell>
                <mxCell id="81" value="" style="endArrow=none;html=1;strokeColor=#000000;fontColor=#000000;strokeWidth=2;" parent="1" edge="1">
                    <mxGeometry width="50" height="50" relative="1" as="geometry">
                        <mxPoint x="454.72" y="375.78999999999996" as="sourcePoint"/>
                        <mxPoint x="454.72" y="345.78999999999996" as="targetPoint"/>
                    </mxGeometry>
                </mxCell>
                <mxCell id="82" value="" style="endArrow=none;html=1;strokeColor=#000000;fontColor=#000000;strokeWidth=2;" parent="1" edge="1">
                    <mxGeometry width="50" height="50" relative="1" as="geometry">
                        <mxPoint x="414.72" y="375.78999999999996" as="sourcePoint"/>
                        <mxPoint x="454.72" y="375.78999999999996" as="targetPoint"/>
                    </mxGeometry>
                </mxCell>
                <mxCell id="83" value="1" style="text;html=1;strokeColor=none;fillColor=#FF66FF;align=center;verticalAlign=middle;whiteSpace=wrap;rounded=0;fontColor=#000000;fontStyle=1;labelBackgroundColor=none;" parent="1" vertex="1">
                    <mxGeometry x="415.72" y="346.02000000000004" width="38" height="29" as="geometry"/>
                </mxCell>
                <mxCell id="84" value="" style="endArrow=classic;html=1;strokeColor=#000000;fontColor=#000000;strokeWidth=2;" parent="1" edge="1">
                    <mxGeometry width="50" height="50" relative="1" as="geometry">
                        <mxPoint x="600.6599999999999" y="492.42999999999984" as="sourcePoint"/>
                        <mxPoint x="680.6599999999999" y="492.42999999999984" as="targetPoint"/>
                    </mxGeometry>
                </mxCell>
                <mxCell id="85" value="pq.empty()" style="text;html=1;strokeColor=none;fillColor=none;align=center;verticalAlign=middle;whiteSpace=wrap;rounded=0;fontColor=#000000;" parent="1" vertex="1">
                    <mxGeometry x="606.66" y="472.42999999999995" width="60" height="20" as="geometry"/>
                </mxCell>
                <mxCell id="86" value="false" style="text;html=1;strokeColor=#FF66FF;fillColor=none;align=center;verticalAlign=middle;whiteSpace=wrap;rounded=0;fontColor=#000000;fontStyle=1;fontSize=14;labelBorderColor=none;strokeWidth=3;" parent="1" vertex="1">
                    <mxGeometry x="686.66" y="477.15999999999997" width="54" height="30" as="geometry"/>
                </mxCell>
                <mxCell id="87" value="" style="endArrow=none;html=1;strokeColor=#000000;fontColor=#000000;strokeWidth=2;" parent="1" edge="1">
                    <mxGeometry width="50" height="50" relative="1" as="geometry">
                        <mxPoint x="111.66000000000008" y="623.8399999999999" as="sourcePoint"/>
                        <mxPoint x="111.66000000000008" y="593.8399999999999" as="targetPoint"/>
                    </mxGeometry>
                </mxCell>
                <mxCell id="88" value="" style="endArrow=none;html=1;strokeColor=#000000;fontColor=#000000;strokeWidth=2;" parent="1" edge="1">
                    <mxGeometry width="50" height="50" relative="1" as="geometry">
                        <mxPoint x="151.66000000000008" y="623.8399999999999" as="sourcePoint"/>
                        <mxPoint x="151.66000000000008" y="593.8399999999999" as="targetPoint"/>
                    </mxGeometry>
                </mxCell>
                <mxCell id="89" value="" style="endArrow=none;html=1;strokeColor=#000000;fontColor=#000000;strokeWidth=2;" parent="1" edge="1">
                    <mxGeometry width="50" height="50" relative="1" as="geometry">
                        <mxPoint x="111.66000000000008" y="623.8399999999999" as="sourcePoint"/>
                        <mxPoint x="151.66000000000008" y="623.8399999999999" as="targetPoint"/>
                    </mxGeometry>
                </mxCell>
                <mxCell id="90" value="0" style="text;html=1;strokeColor=none;fillColor=#FF66FF;align=center;verticalAlign=middle;whiteSpace=wrap;rounded=0;fontColor=#000000;fontStyle=1;labelBackgroundColor=none;" parent="1" vertex="1">
                    <mxGeometry x="112.66" y="594.07" width="38" height="29" as="geometry"/>
                </mxCell>
                <mxCell id="91" value="" style="endArrow=classic;html=1;strokeColor=#000000;fontColor=#000000;strokeWidth=2;" parent="1" edge="1">
                    <mxGeometry width="50" height="50" relative="1" as="geometry">
                        <mxPoint x="164.66000000000008" y="604" as="sourcePoint"/>
                        <mxPoint x="244.66000000000008" y="604" as="targetPoint"/>
                    </mxGeometry>
                </mxCell>
                <mxCell id="92" value="pq.pop()" style="text;html=1;strokeColor=none;fillColor=none;align=center;verticalAlign=middle;whiteSpace=wrap;rounded=0;fontColor=#000000;" parent="1" vertex="1">
                    <mxGeometry x="170.66" y="584" width="60" height="20" as="geometry"/>
                </mxCell>
                <mxCell id="93" value="pq" style="text;html=1;strokeColor=none;fillColor=none;align=center;verticalAlign=middle;whiteSpace=wrap;rounded=0;fontColor=#000000;fontStyle=1;fontSize=18;labelBorderColor=none;strokeWidth=3;" parent="1" vertex="1">
                    <mxGeometry x="246.66" y="589" width="30" height="30" as="geometry"/>
                </mxCell>
                <mxCell id="94" value="" style="endArrow=classic;html=1;strokeColor=#000000;fontColor=#000000;strokeWidth=2;" parent="1" edge="1">
                    <mxGeometry width="50" height="50" relative="1" as="geometry">
                        <mxPoint x="280.6600000000001" y="604" as="sourcePoint"/>
                        <mxPoint x="360.6600000000001" y="604" as="targetPoint"/>
                    </mxGeometry>
                </mxCell>
                <mxCell id="95" value="s.empty()" style="text;html=1;strokeColor=none;fillColor=none;align=center;verticalAlign=middle;whiteSpace=wrap;rounded=0;fontColor=#000000;" parent="1" vertex="1">
                    <mxGeometry x="286.66" y="584" width="60" height="20" as="geometry"/>
                </mxCell>
                <mxCell id="96" value="true" style="text;html=1;strokeColor=#FF66FF;fillColor=none;align=center;verticalAlign=middle;whiteSpace=wrap;rounded=0;fontColor=#000000;fontStyle=1;fontSize=14;labelBorderColor=none;strokeWidth=3;" parent="1" vertex="1">
                    <mxGeometry x="371.66" y="589" width="54" height="30" as="geometry"/>
                </mxCell>
                <mxCell id="97" value="pq" style="text;html=1;strokeColor=none;fillColor=none;align=center;verticalAlign=middle;whiteSpace=wrap;rounded=0;fontColor=#000000;fontStyle=1;fontSize=18;labelBorderColor=none;strokeWidth=3;" parent="1" vertex="1">
                    <mxGeometry x="551.66" y="591.5" width="30" height="30" as="geometry"/>
                </mxCell>
                <mxCell id="98" value="" style="endArrow=classic;html=1;strokeColor=#000000;fontColor=#000000;strokeWidth=2;" parent="1" edge="1">
                    <mxGeometry width="50" height="50" relative="1" as="geometry">
                        <mxPoint x="585.6599999999999" y="606.5" as="sourcePoint"/>
                        <mxPoint x="665.6599999999999" y="606.5" as="targetPoint"/>
                    </mxGeometry>
                </mxCell>
                <mxCell id="99" value="pq.size()" style="text;html=1;strokeColor=none;fillColor=none;align=center;verticalAlign=middle;whiteSpace=wrap;rounded=0;fontColor=#000000;" parent="1" vertex="1">
                    <mxGeometry x="591.66" y="586.5" width="60" height="20" as="geometry"/>
                </mxCell>
                <mxCell id="100" value="0" style="text;html=1;strokeColor=#FF66FF;fillColor=none;align=center;verticalAlign=middle;whiteSpace=wrap;rounded=0;fontColor=#000000;fontStyle=1;fontSize=14;labelBorderColor=none;strokeWidth=3;" parent="1" vertex="1">
                    <mxGeometry x="676.66" y="591.5" width="30" height="30" as="geometry"/>
                </mxCell>
                <mxCell id="101" value="pq" style="text;html=1;strokeColor=none;fillColor=none;align=center;verticalAlign=middle;whiteSpace=wrap;rounded=0;fontColor=#000000;fontStyle=1;fontSize=12;labelBorderColor=none;strokeWidth=3;" parent="1" vertex="1">
                    <mxGeometry x="311.34" y="220" width="30" height="19" as="geometry"/>
                </mxCell>
                <mxCell id="102" value="pq" style="text;html=1;strokeColor=none;fillColor=none;align=center;verticalAlign=middle;whiteSpace=wrap;rounded=0;fontColor=#000000;fontStyle=1;fontSize=12;labelBorderColor=none;strokeWidth=3;" parent="1" vertex="1">
                    <mxGeometry x="468.34" y="219" width="30" height="19" as="geometry"/>
                </mxCell>
                <mxCell id="103" value="pq" style="text;html=1;strokeColor=none;fillColor=none;align=center;verticalAlign=middle;whiteSpace=wrap;rounded=0;fontColor=#000000;fontStyle=1;fontSize=12;labelBorderColor=none;strokeWidth=3;" parent="1" vertex="1">
                    <mxGeometry x="618.34" y="220" width="30" height="19" as="geometry"/>
                </mxCell>
                <mxCell id="104" value="pq" style="text;html=1;strokeColor=none;fillColor=none;align=center;verticalAlign=middle;whiteSpace=wrap;rounded=0;fontColor=#000000;fontStyle=1;fontSize=12;labelBorderColor=none;strokeWidth=3;" parent="1" vertex="1">
                    <mxGeometry x="116.00000000000003" y="376.07" width="30" height="19" as="geometry"/>
                </mxCell>
                <mxCell id="105" value="pq" style="text;html=1;strokeColor=none;fillColor=none;align=center;verticalAlign=middle;whiteSpace=wrap;rounded=0;fontColor=#000000;fontStyle=1;fontSize=12;labelBorderColor=none;strokeWidth=3;" parent="1" vertex="1">
                    <mxGeometry x="265" y="376.07" width="30" height="19" as="geometry"/>
                </mxCell>
                <mxCell id="106" value="pq" style="text;html=1;strokeColor=none;fillColor=none;align=center;verticalAlign=middle;whiteSpace=wrap;rounded=0;fontColor=#000000;fontStyle=1;fontSize=12;labelBorderColor=none;strokeWidth=3;" parent="1" vertex="1">
                    <mxGeometry x="419.72" y="376.07" width="30" height="19" as="geometry"/>
                </mxCell>
                <mxCell id="107" value="pq" style="text;html=1;strokeColor=none;fillColor=none;align=center;verticalAlign=middle;whiteSpace=wrap;rounded=0;fontColor=#000000;fontStyle=1;fontSize=12;labelBorderColor=none;strokeWidth=3;" parent="1" vertex="1">
                    <mxGeometry x="571" y="376.07" width="30" height="19" as="geometry"/>
                </mxCell>
                <mxCell id="108" value="pq" style="text;html=1;strokeColor=none;fillColor=none;align=center;verticalAlign=middle;whiteSpace=wrap;rounded=0;fontColor=#000000;fontStyle=1;fontSize=12;labelBorderColor=none;strokeWidth=3;" parent="1" vertex="1">
                    <mxGeometry x="116.32" y="513" width="30" height="19" as="geometry"/>
                </mxCell>
                <mxCell id="109" value="pq" style="text;html=1;strokeColor=none;fillColor=none;align=center;verticalAlign=middle;whiteSpace=wrap;rounded=0;fontColor=#000000;fontStyle=1;fontSize=12;labelBorderColor=none;strokeWidth=3;" parent="1" vertex="1">
                    <mxGeometry x="397.66" y="510.73" width="30" height="19" as="geometry"/>
                </mxCell>
                <mxCell id="110" value="pq" style="text;html=1;strokeColor=none;fillColor=none;align=center;verticalAlign=middle;whiteSpace=wrap;rounded=0;fontColor=#000000;fontStyle=1;fontSize=12;labelBorderColor=none;strokeWidth=3;" parent="1" vertex="1">
                    <mxGeometry x="552.66" y="513" width="30" height="19" as="geometry"/>
                </mxCell>
                <mxCell id="111" value="pq" style="text;html=1;strokeColor=none;fillColor=none;align=center;verticalAlign=middle;whiteSpace=wrap;rounded=0;fontColor=#000000;fontStyle=1;fontSize=12;labelBorderColor=none;strokeWidth=3;" parent="1" vertex="1">
                    <mxGeometry x="116.32" y="623.0699999999999" width="30" height="19" as="geometry"/>
                </mxCell>
                <mxCell id="112" value="" style="endArrow=none;dashed=1;html=1;fontSize=12;fontColor=#66FFFF;strokeColor=#808080;" parent="1" edge="1">
                    <mxGeometry width="50" height="50" relative="1" as="geometry">
                        <mxPoint x="-21.839999999999918" y="256" as="sourcePoint"/>
                        <mxPoint x="827.1599999999999" y="256" as="targetPoint"/>
                    </mxGeometry>
                </mxCell>
                <mxCell id="113" value="" style="endArrow=none;dashed=1;html=1;fontSize=12;fontColor=#66FFFF;strokeColor=#808080;" parent="1" edge="1">
                    <mxGeometry width="50" height="50" relative="1" as="geometry">
                        <mxPoint x="-12" y="421" as="sourcePoint"/>
                        <mxPoint x="837" y="421" as="targetPoint"/>
                    </mxGeometry>
                </mxCell>
                <mxCell id="114" value="" style="endArrow=none;dashed=1;html=1;fontSize=12;fontColor=#66FFFF;strokeColor=#808080;" parent="1" edge="1">
                    <mxGeometry width="50" height="50" relative="1" as="geometry">
                        <mxPoint y="557" as="sourcePoint"/>
                        <mxPoint x="849" y="557" as="targetPoint"/>
                    </mxGeometry>
                </mxCell>
                <mxCell id="115" value="&lt;font color=&quot;#ffffff&quot;&gt;s.top()&lt;/font&gt;" style="text;html=1;strokeColor=none;fillColor=none;align=center;verticalAlign=middle;whiteSpace=wrap;rounded=0;fontColor=#000000;" parent="1" vertex="1">
                    <mxGeometry x="556" y="83" width="60" height="20" as="geometry"/>
                </mxCell>
                <mxCell id="117" style="edgeStyle=none;html=1;exitX=0.75;exitY=1;exitDx=0;exitDy=0;" edge="1" parent="1" source="116">
                    <mxGeometry relative="1" as="geometry">
                        <mxPoint x="140" y="690" as="targetPoint"/>
                    </mxGeometry>
                </mxCell>
                <mxCell id="116" value="&lt;font color=&quot;#ffffff&quot;&gt;s.top()&lt;/font&gt;" style="text;html=1;strokeColor=none;fillColor=none;align=center;verticalAlign=middle;whiteSpace=wrap;rounded=0;fontColor=#000000;" parent="1" vertex="1">
                    <mxGeometry x="101.66000000000003" y="656" width="60" height="20" as="geometry"/>
                </mxCell>
            </root>
        </mxGraphModel>
    </diagram>
</mxfile>